<?xml version="1.0" encoding="UTF-8"?>
<svg xmlns="http://www.w3.org/2000/svg" width="3840" height="1839" viewBox="0 0 616 295" fill="none">
  <title>ART 2026 Logo</title>
  <desc>Vectorized transparent ART 2026 logo, prepared at 4K display width.</desc>
  <g id="ART-2026-logo">
    <path id="blue" d="M 392.00 292.15 L 333.00 292.41 L 329.00 291.25 L 325.59 287.00 L 253.53 167.00 L 253.68 161.00 L 257.00 158.61 L 310.00 158.40 L 320.00 155.44 L 325.00 152.24 L 329.41 148.00 L 332.33 144.00 L 335.44 136.00 L 336.39 131.00 L 336.44 125.00 L 335.34 119.00 L 333.37 114.00 L 330.31 109.00 L 325.00 103.61 L 321.00 100.93 L 316.00 98.55 L 306.00 96.72 L 214.00 96.43 L 210.60 93.00 L 182.62 45.00 L 182.60 39.00 L 185.14 36.00 L 189.00 34.63 L 195.00 34.56 L 309.00 34.57 L 321.00 35.56 L 337.00 39.53 L 350.00 45.58 L 362.00 53.58 L 368.15 59.00 L 377.34 69.00 L 384.38 79.00 L 389.21 88.00 L 395.43 105.00 L 397.46 115.00 L 398.40 125.00 L 398.34 134.00 L 396.40 149.00 L 394.24 157.00 L 390.41 167.00 L 381.40 182.00 L 374.00 190.46 L 365.00 198.34 L 354.00 205.38 L 348.00 207.84 L 347.71 209.00 L 361.38 229.00 L 395.38 283.00 L 396.41 288.00 L 394.50 291.00 Z M 298.00 292.32 L 223.00 292.43 L 221.00 291.47 L 218.35 284.00 L 211.71 274.00 L 211.57 270.00 L 212.98 267.00 L 216.00 264.69 L 220.00 263.70 L 235.00 262.42 L 237.00 261.45 L 240.25 255.00 L 241.25 250.00 L 241.06 248.00 L 239.00 245.70 L 222.00 235.47 L 219.73 233.00 L 219.20 230.00 L 219.70 226.00 L 221.00 224.49 L 237.15 212.00 L 237.35 207.00 L 234.50 199.00 L 232.00 195.61 L 226.00 195.64 L 211.00 198.47 L 208.00 197.40 L 205.00 194.66 L 203.53 192.00 L 203.56 185.00 L 210.28 170.00 L 210.56 167.00 L 207.00 163.70 L 199.00 158.60 L 197.00 157.59 L 194.00 157.66 L 179.00 170.39 L 177.00 171.43 L 172.00 171.48 L 169.00 170.18 L 165.75 167.00 L 161.39 149.00 L 160.29 147.00 L 149.00 145.76 L 142.96 147.00 L 141.67 150.00 L 138.29 165.00 L 135.00 169.44 L 131.00 171.45 L 126.00 171.44 L 124.00 170.46 L 108.00 157.51 L 106.00 157.91 L 98.00 162.59 L 95.00 164.68 L 93.12 167.00 L 93.63 170.00 L 100.47 186.00 L 100.42 191.00 L 98.43 195.00 L 96.00 197.25 L 92.00 198.51 L 89.00 198.45 L 77.00 195.64 L 72.00 195.49 L 70.72 196.00 L 68.60 200.00 L 65.57 210.00 L 65.83 212.00 L 71.00 216.32 L 82.53 224.00 L 84.48 227.00 L 84.49 231.00 L 83.00 233.91 L 80.00 236.41 L 65.00 245.50 L 62.61 248.00 L 62.55 251.00 L 64.68 258.00 L 67.33 262.00 L 88.00 264.54 L 91.51 268.00 L 92.45 270.00 L 92.35 274.00 L 85.59 284.00 L 83.00 291.56 L 80.00 292.47 L 7.00 292.40 L 5.00 291.46 L 2.84 289.00 L 2.53 285.00 L 3.57 282.00 L 15.62 260.00 L 138.63 41.00 L 144.54 31.00 L 147.00 28.53 L 149.00 27.54 L 153.00 27.45 L 155.00 27.74 L 156.44 29.00 L 170.30 52.00 L 237.65 171.00 L 301.35 281.00 L 303.28 287.00 L 303.04 288.00 L 301.00 291.40 Z M 454.00 284.49 L 450.34 283.00 L 447.52 279.00 L 447.53 121.00 L 450.00 117.77 L 455.00 117.09 L 502.00 117.06 L 507.00 117.60 L 509.18 120.00 L 509.93 127.00 L 509.99 225.00 L 509.47 229.00 L 506.00 232.40 L 483.00 233.54 L 480.00 234.72 L 475.00 238.48 L 470.63 245.00 L 458.43 277.00 L 455.46 283.00 Z M 588.00 88.13 L 586.72 88.00 L 584.42 84.00 L 581.56 81.00 L 577.00 78.67 L 559.00 78.59 L 557.58 78.00 L 556.29 68.00 L 553.41 59.00 L 548.45 49.00 L 540.55 37.00 L 541.00 35.34 L 587.00 35.26 L 590.00 35.85 L 592.40 38.00 L 593.36 42.00 L 593.28 81.00 L 591.30 86.00 Z M 405.00 81.54 L 403.00 81.45 L 401.53 80.00 L 392.27 66.00 L 381.37 53.00 L 368.00 40.88 L 367.56 40.00 L 370.00 36.75 L 372.00 35.58 L 378.00 34.96 L 423.00 35.13 L 426.38 36.00 L 413.71 55.00 L 408.65 68.00 Z" fill="#00557E" fill-rule="evenodd" clip-rule="evenodd"/>
    <path id="gold" d="M 573.00 105.16 L 415.00 105.45 L 412.00 104.42 L 410.68 103.00 L 405.60 88.00 L 407.00 86.55 L 408.00 86.49 L 450.54 86.00 L 450.88 85.00 L 450.00 84.72 L 428.00 82.58 L 419.00 82.42 L 416.49 81.00 L 416.52 73.00 L 417.70 67.00 L 419.69 61.00 L 424.56 51.00 L 429.55 44.00 L 439.00 34.72 L 448.00 28.66 L 461.00 22.82 L 462.40 24.00 L 469.00 68.43 L 469.61 67.00 L 469.50 50.00 L 468.67 19.00 L 470.00 16.80 L 474.00 15.79 L 492.00 15.68 L 495.00 16.90 L 496.30 20.00 L 495.60 43.00 L 495.91 59.00 L 496.38 66.00 L 497.00 66.72 L 501.71 29.00 L 502.55 24.00 L 504.00 23.13 L 512.00 25.69 L 520.00 29.78 L 528.00 35.82 L 534.20 42.00 L 539.43 49.00 L 543.28 56.00 L 546.37 64.00 L 548.28 72.00 L 548.89 79.00 L 548.00 81.61 L 520.00 84.58 L 514.97 86.00 L 575.00 86.72 L 579.29 91.00 L 579.42 99.00 L 576.56 103.00 Z M 159.00 282.13 L 147.00 282.47 L 141.00 281.27 L 133.00 278.36 L 125.00 273.43 L 118.00 266.80 L 112.72 260.00 L 108.63 251.00 L 107.52 247.00 L 106.60 241.00 L 106.67 232.00 L 108.54 223.00 L 112.59 214.00 L 117.53 207.00 L 123.00 201.74 L 131.00 196.52 L 141.00 192.71 L 148.00 191.60 L 157.00 191.61 L 167.00 193.65 L 177.00 198.55 L 181.00 201.52 L 188.40 209.00 L 193.43 217.00 L 197.34 228.00 L 197.48 244.00 L 196.45 249.00 L 193.32 257.00 L 188.31 265.00 L 181.00 272.45 L 177.00 275.28 L 169.00 279.44 Z M 158.99 260.00 L 167.00 256.29 L 171.45 252.00 L 173.46 249.00 L 176.43 240.00 L 176.45 235.00 L 175.47 231.00 L 171.49 223.00 L 166.00 217.56 L 163.00 215.87 L 156.00 213.57 L 148.00 213.57 L 144.00 214.56 L 138.00 217.83 L 135.00 220.50 L 131.63 225.00 L 129.64 229.00 L 128.48 236.00 L 128.51 241.00 L 129.51 245.00 L 133.52 252.00 L 138.00 256.22 L 143.00 259.04 L 147.00 260.46 L 152.00 260.80 Z M 533.00 284.34 L 526.00 284.48 L 521.33 282.00 L 517.51 277.00 L 515.51 270.00 L 515.55 257.00 L 517.66 250.00 L 520.60 246.00 L 524.00 243.67 L 529.00 242.72 L 534.00 243.52 L 536.00 244.57 L 539.49 248.00 L 542.22 254.00 L 543.27 262.00 L 543.05 268.00 L 541.43 276.00 L 538.00 281.29 Z M 604.00 284.11 L 596.00 284.36 L 592.00 282.35 L 587.69 277.00 L 585.54 269.00 L 585.54 259.00 L 587.61 252.00 L 588.86 250.00 L 592.00 246.51 L 595.00 244.52 L 602.00 242.71 L 609.65 244.00 L 610.61 245.00 L 610.57 249.00 L 610.00 249.45 L 602.00 247.54 L 597.03 249.00 L 593.63 252.00 L 592.54 254.00 L 591.50 259.00 L 592.00 260.42 L 597.00 257.51 L 605.00 257.80 L 608.75 260.00 L 612.48 265.00 L 613.50 272.00 L 612.42 277.00 L 608.00 282.48 Z M 529.60 280.00 L 534.00 278.18 L 536.29 274.00 L 537.47 268.00 L 537.50 260.00 L 535.29 251.00 L 533.00 248.55 L 531.00 247.52 L 528.00 247.51 L 525.00 248.77 L 522.61 252.00 L 521.64 255.00 L 520.93 264.00 L 521.56 272.00 L 522.93 276.00 L 526.00 279.39 Z M 506.00 283.64 L 482.00 283.80 L 480.53 283.00 L 480.74 279.00 L 496.38 263.00 L 499.27 259.00 L 500.48 255.00 L 498.49 250.00 L 494.00 247.78 L 490.00 247.81 L 483.00 250.35 L 481.00 250.42 L 480.75 246.00 L 482.00 244.85 L 486.00 243.51 L 493.00 242.76 L 498.00 243.52 L 502.00 245.52 L 504.33 248.00 L 505.44 250.00 L 506.23 254.00 L 505.31 259.00 L 501.24 265.00 L 488.62 278.00 L 488.60 279.00 L 506.00 279.36 L 506.50 281.00 Z M 576.00 283.64 L 552.00 283.80 L 550.53 283.00 L 550.75 279.00 L 566.39 263.00 L 569.28 259.00 L 570.49 255.00 L 568.49 250.00 L 564.00 247.78 L 560.00 247.82 L 553.00 250.36 L 551.00 250.38 L 550.76 246.00 L 552.00 244.87 L 556.00 243.51 L 563.00 242.76 L 568.00 243.52 L 572.00 245.52 L 574.34 248.00 L 576.23 254.00 L 575.32 259.00 L 571.25 265.00 L 558.62 278.00 L 558.60 279.00 L 576.00 279.36 L 576.50 281.00 Z M 600.26 280.00 L 603.00 279.48 L 605.18 278.00 L 607.37 274.00 L 607.50 270.00 L 605.38 264.00 L 600.00 261.57 L 596.00 262.74 L 593.59 265.00 L 592.66 267.00 L 592.33 271.00 L 592.70 275.00 L 593.70 277.00 L 596.00 279.20 Z" fill="#A39161" fill-rule="evenodd" clip-rule="evenodd"/>
  </g>
</svg>
